<?xml version="1.0" standalone="no"?>
<!DOCTYPE svg PUBLIC "-//W3C//DTD SVG 20010904//EN"
 "http://www.w3.org/TR/2001/REC-SVG-20010904/DTD/svg10.dtd">
<svg version="1.0" xmlns="http://www.w3.org/2000/svg"
 width="1644.000000pt" height="360.000000pt" viewBox="0 0 1644.000000 360.000000"
 preserveAspectRatio="xMidYMid meet">

<g transform="translate(0.000000,360.000000) scale(0.100000,-0.100000)"
fill="#000000" stroke="none">
<path d="M1485 3100 c-520 -62 -967 -424 -1141 -925 -56 -160 -68 -236 -68
-445 -1 -216 9 -281 68 -457 162 -480 575 -831 1080 -918 129 -22 350 -20 478
5 193 37 366 108 530 216 98 65 300 269 367 369 371 564 298 1294 -178 1765
-251 249 -568 384 -921 395 -80 2 -176 0 -215 -5z m65 -112 l51 -53 -6 53 c-6
48 -5 52 14 52 18 0 21 -6 21 -49 0 -27 3 -63 6 -80 10 -49 -25 -40 -86 22
l-51 52 4 -58 c4 -57 3 -58 -22 -56 -14 2 -36 -1 -49 -5 -17 -6 -27 -3 -35 8
-10 14 -17 14 -45 4 -27 -10 -33 -17 -29 -35 4 -20 -9 -33 -31 -33 -4 0 -6 39
-5 87 3 109 15 120 72 68 40 -37 101 -85 109 -85 2 0 1 31 -3 69 -11 110 7
118 85 39z m260 28 c28 -13 38 -49 20 -72 -8 -9 -32 -14 -66 -14 -53 0 -54 0
-54 -30 0 -24 -4 -30 -21 -30 -20 0 -21 3 -13 63 4 34 8 72 8 85 1 21 4 22 51
16 28 -4 61 -11 75 -18z m142 -75 c-2 -27 0 -51 5 -54 5 -3 26 10 46 28 32 29
41 33 60 24 l23 -11 -28 -59 c-15 -32 -28 -63 -28 -69 0 -11 -33 -14 -43 -4
-3 4 3 24 13 45 28 53 26 55 -20 19 -23 -18 -43 -30 -46 -27 -3 3 -9 27 -13
54 l-7 48 -18 -47 c-16 -41 -21 -46 -37 -38 -17 10 -16 14 11 73 17 34 30 67
30 74 0 9 7 9 28 2 28 -9 29 -12 24 -58z m-97 -161 c479 -101 828 -511 852
-1003 12 -240 -48 -457 -182 -662 -50 -77 -202 -230 -282 -284 -450 -302
-1025 -240 -1399 150 -126 132 -210 280 -260 460 -38 138 -45 352 -14 499 85
413 406 744 812 836 163 37 309 38 473 4z m265 -2140 c26 -26 26 -74 0 -100
-42 -42 -111 -35 -130 15 -27 72 75 140 130 85z m-778 -46 c3 -3 -4 -31 -16
-62 -19 -50 -26 -57 -52 -60 -36 -3 -77 27 -65 47 8 12 12 12 26 -2 27 -28 42
-20 61 33 16 45 31 60 46 44z m628 -9 c0 -11 -11 -15 -38 -15 -43 0 -62 -14
-62 -45 0 -45 50 -60 87 -26 11 10 25 16 32 12 18 -11 -31 -51 -70 -57 -41 -7
-75 17 -85 58 -9 42 40 88 95 88 30 0 41 -4 41 -15z m-522 -75 c7 -34 15 -67
19 -75 3 -10 -2 -15 -16 -15 -14 0 -21 6 -21 19 0 30 -65 45 -76 17 -3 -8 -13
-12 -25 -9 -17 5 -15 10 21 55 22 28 40 55 40 59 0 5 10 9 23 9 20 0 25 -8 35
-60z m84 -16 c-5 -59 -6 -58 71 -57 9 0 17 -8 17 -16 0 -13 -11 -15 -66 -13
-53 3 -64 7 -60 19 3 8 6 41 6 73 0 51 2 58 18 53 16 -4 18 -12 14 -59z m288
62 c0 -23 -14 -34 -33 -27 -26 9 -57 3 -57 -10 0 -5 17 -9 38 -9 43 0 62 -14
62 -47 0 -28 -27 -43 -79 -43 -34 0 -41 3 -41 20 0 17 3 18 26 10 18 -7 32 -6
47 2 21 12 20 13 -18 16 -22 2 -45 8 -52 14 -16 13 -17 50 -1 66 11 11 108 18
108 8z m-150 -38 c0 -18 3 -50 6 -70 6 -34 4 -38 -14 -38 -18 0 -21 7 -24 70
-3 61 -1 70 15 70 13 0 17 -8 17 -32z"/>
<path d="M1320 2920 c0 -19 20 -27 33 -13 8 7 -11 33 -24 33 -5 0 -9 -9 -9
-20z"/>
<path d="M1720 2981 c0 -18 6 -21 41 -21 33 0 40 3 37 18 -2 12 -14 18 -41 20
-32 3 -37 0 -37 -17z"/>
<path d="M1550 2535 c0 -59 16 -76 22 -22 l4 32 13 -27 c8 -16 17 -28 20 -28
4 0 14 12 23 28 l17 27 1 -32 c0 -18 5 -33 10 -33 6 0 10 8 10 19 0 10 3 33 6
50 6 27 4 31 -15 31 -11 0 -21 -4 -21 -8 0 -5 -6 -17 -14 -27 -13 -18 -14 -17
-30 13 -27 51 -46 42 -46 -23z"/>
<path d="M1412 2525 c2 -36 7 -55 15 -55 8 0 13 13 13 30 0 37 9 38 40 5 35
-38 45 -32 42 25 -3 31 -9 50 -16 50 -8 0 -11 -11 -8 -32 l5 -33 -29 25 c-16
14 -30 28 -32 33 -2 4 -10 7 -18 7 -12 0 -14 -12 -12 -55z"/>
<path d="M1717 2529 c-28 -48 -29 -83 -3 -47 14 19 51 14 60 -8 9 -22 67 -18
73 5 3 12 11 17 19 14 26 -10 64 6 64 27 0 23 -28 40 -68 40 -28 0 -30 -3 -36
-45 -4 -25 -10 -45 -14 -45 -4 0 -16 23 -27 52 -11 28 -25 53 -30 55 -6 1 -23
-20 -38 -48z m183 -4 c0 -16 -9 -19 -34 -9 -25 9 -19 24 9 24 16 0 25 -6 25
-15z m-140 -5 c0 -5 -4 -10 -10 -10 -5 0 -10 5 -10 10 0 6 5 10 10 10 6 0 10
-4 10 -10z"/>
<path d="M1305 2548 c-26 -15 -35 -28 -35 -55 0 -28 40 -56 66 -47 54 19 68
60 34 94 -23 23 -36 24 -65 8z m39 -14 c21 -8 21 -53 0 -61 -18 -7 -45 6 -51
24 -2 6 3 18 12 27 19 18 18 18 39 10z"/>
<path d="M1950 2525 c-15 -18 -1 -40 31 -50 10 -4 19 -11 19 -16 0 -13 -34
-11 -47 2 -7 7 -13 7 -17 0 -9 -14 30 -33 62 -29 41 5 43 45 3 59 -17 6 -31
15 -31 20 0 12 17 11 42 -2 27 -14 38 -1 14 17 -26 18 -60 18 -76 -1z"/>
<path d="M2254 2369 c-55 -50 -133 -122 -174 -159 l-76 -68 -44 34 c-25 18
-78 48 -119 65 -135 57 -327 51 -461 -14 -89 -43 -206 -159 -248 -247 -70
-146 -63 -334 19 -472 22 -37 44 -70 49 -73 23 -14 3 -40 -133 -166 -78 -73
-145 -139 -150 -145 -9 -16 -11 -16 267 80 l220 75 45 -16 c28 -10 90 -18 158
-21 96 -3 122 -1 180 18 93 30 167 77 240 152 125 131 168 289 127 469 l-16
71 112 249 c62 138 110 252 107 255 -2 3 -49 -36 -103 -87z m-28 -111 c-59
-141 -109 -248 -115 -248 -3 0 -17 17 -31 37 -14 20 -29 41 -34 48 -6 8 22 41
85 103 52 50 97 92 102 92 4 0 1 -15 -7 -32z m-471 -33 c67 -18 164 -67 194
-98 l20 -22 -226 -210 c-125 -116 -286 -265 -359 -332 l-132 -122 -19 22
c-109 120 -136 356 -58 507 63 123 182 216 325 256 63 17 185 17 255 -1z m260
-163 c21 -15 65 -92 65 -113 0 -24 -176 -426 -196 -448 -11 -12 -77 -37 -391
-144 l-91 -31 -56 37 c-31 21 -56 41 -56 46 0 5 19 26 43 46 23 21 105 97 182
169 77 72 165 154 195 181 30 28 106 99 169 158 62 59 116 107 120 107 3 0 11
-4 16 -8z m109 -254 c19 -191 -91 -385 -268 -471 -92 -46 -165 -61 -263 -55
-141 8 -133 16 100 97 117 41 217 79 223 85 6 6 51 102 100 213 49 111 92 199
95 197 4 -2 10 -32 13 -66z m-824 -467 c23 -16 36 -32 31 -36 -17 -10 -235
-85 -238 -81 -5 5 146 146 157 146 6 0 28 -13 50 -29z"/>
<path d="M1413 2022 c-17 -2 -37 -10 -44 -18 -11 -13 -9 -14 14 -9 24 6 27 4
27 -17 0 -13 -7 -48 -16 -77 -8 -29 -12 -56 -9 -59 11 -11 35 29 35 57 0 14 3
43 6 64 5 29 11 37 28 37 21 0 22 -4 18 -62 -4 -74 14 -111 44 -92 10 6 20 16
22 24 3 7 0 10 -6 6 -24 -15 -42 6 -42 49 0 57 8 75 32 75 11 0 18 5 15 13 -4
12 -58 16 -124 9z"/>
<path d="M2015 1020 c-3 -5 -1 -10 4 -10 6 0 11 5 11 10 0 6 -2 10 -4 10 -3 0
-8 -4 -11 -10z"/>
<path d="M1060 945 c0 -54 0 -55 29 -55 16 0 41 4 55 10 21 8 26 16 26 44 0
41 -20 56 -74 56 l-36 0 0 -55z m87 19 c8 -22 -9 -48 -36 -52 -18 -3 -21 1
-21 32 0 32 3 36 25 36 15 0 28 -7 32 -16z"/>
<path d="M1190 945 l0 -55 50 0 c28 0 50 5 50 10 0 6 -16 10 -35 10 -24 0 -35
5 -35 15 0 9 9 15 25 15 14 0 25 5 25 10 0 6 -11 10 -25 10 -14 0 -25 5 -25
10 0 6 16 10 35 10 19 0 35 5 35 10 0 6 -22 10 -50 10 l-50 0 0 -55z"/>
<path d="M1310 945 l0 -55 50 0 c28 0 50 5 50 10 0 6 -16 10 -35 10 -35 0 -35
0 -35 45 0 33 -4 45 -15 45 -12 0 -15 -13 -15 -55z"/>
<path d="M1420 945 l0 -55 50 0 c28 0 50 5 50 10 0 6 -18 10 -40 10 -29 0 -40
4 -40 15 0 9 9 15 25 15 14 0 25 5 25 10 0 6 -11 10 -25 10 -14 0 -25 5 -25
10 0 6 18 10 40 10 22 0 40 5 40 10 0 6 -22 10 -50 10 l-50 0 0 -55z"/>
<path d="M1546 981 c-40 -44 12 -106 71 -85 38 13 39 48 1 52 -16 2 -28 -1
-28 -7 0 -6 8 -11 17 -11 12 0 14 -3 6 -11 -6 -6 -21 -8 -33 -4 -16 5 -20 13
-18 33 2 22 8 27 33 28 43 1 47 18 4 22 -25 2 -40 -3 -53 -17z"/>
<path d="M1680 950 c-13 -27 -20 -53 -16 -57 4 -4 12 0 17 10 12 21 55 23 63
2 3 -8 12 -15 21 -15 12 0 9 11 -12 55 -15 30 -32 55 -38 55 -7 0 -22 -22 -35
-50z m40 0 c0 -5 -5 -10 -11 -10 -5 0 -7 5 -4 10 3 6 8 10 11 10 2 0 4 -4 4
-10z"/>
<path d="M1796 984 c-41 -41 3 -102 64 -89 16 4 30 13 30 20 0 11 -6 11 -30 2
-25 -10 -33 -9 -47 6 -27 26 -5 52 41 51 37 -1 48 9 20 20 -28 11 -62 6 -78
-10z"/>
<path d="M1910 945 c0 -42 3 -55 15 -55 12 0 15 13 15 55 0 42 -3 55 -15 55
-12 0 -15 -13 -15 -55z"/>
<path d="M1976 981 c-24 -26 -17 -62 17 -81 24 -13 30 -13 55 0 51 29 32 100
-28 100 -15 0 -35 -9 -44 -19z m72 -33 c2 -20 -2 -28 -19 -33 -30 -10 -53 19
-38 47 15 29 53 20 57 -14z"/>
<path d="M2100 945 c0 -30 5 -55 10 -55 6 0 10 17 10 38 l1 37 34 -37 c20 -21
40 -38 45 -38 6 0 10 25 10 55 0 42 -3 55 -15 55 -10 0 -15 -10 -15 -32 l-1
-33 -29 33 c-16 17 -34 32 -40 32 -5 0 -10 -24 -10 -55z"/>
<path d="M2030 616 c-31 -38 9 -89 54 -68 45 20 30 82 -20 82 -12 0 -27 -7
-34 -14z"/>
<path d="M1396 514 c-9 -22 -8 -24 9 -24 8 0 15 6 15 14 0 22 -17 28 -24 10z"/>
<path d="M5717 2175 c-21 -45 -21 -45 3 -45 18 0 50 44 50 70 0 25 -37 8 -53
-25z"/>
<path d="M14307 2175 c-21 -45 -21 -45 3 -45 18 0 50 44 50 70 0 25 -37 8 -53
-25z"/>
<path d="M3764 2173 c-12 -2 -30 -13 -40 -25 -16 -17 -19 -41 -22 -165 l-3
-144 43 3 43 3 3 68 c3 67 3 67 32 67 l30 0 0 -70 0 -70 40 0 40 0 0 143 c-1
101 -4 147 -14 159 -24 32 -84 44 -152 31z m74 -55 c7 -7 12 -29 12 -50 0 -36
-2 -38 -30 -38 -29 0 -30 2 -30 43 0 24 3 47 7 50 10 11 28 8 41 -5z"/>
<path d="M4794 2165 c-9 -23 5 -35 42 -35 30 0 34 3 34 25 0 22 -4 25 -35 25
-22 0 -38 -6 -41 -15z"/>
<path d="M5474 2165 c-9 -23 5 -35 42 -35 30 0 34 3 34 25 0 22 -4 25 -35 25
-22 0 -38 -6 -41 -15z"/>
<path d="M6317 2173 c-4 -3 -7 -80 -7 -170 l0 -163 25 0 c24 0 24 2 27 84 l3
85 95 -85 c52 -46 100 -84 107 -84 11 0 13 34 11 168 -3 159 -4 167 -23 167
-18 0 -20 -8 -23 -82 -2 -46 -5 -83 -8 -83 -3 0 -48 38 -99 85 -100 90 -98 89
-108 78z"/>
<path d="M7184 2165 c-9 -23 5 -35 42 -35 30 0 34 3 34 25 0 22 -4 25 -35 25
-22 0 -38 -6 -41 -15z"/>
<path d="M8197 2173 c-4 -3 -7 -80 -7 -170 l0 -163 45 0 45 0 0 139 c0 76 -3
153 -6 170 -6 27 -11 31 -39 31 -17 0 -35 -3 -38 -7z"/>
<path d="M8607 2174 c-4 -4 -7 -22 -7 -41 0 -33 -1 -33 -46 -33 -25 0 -54 -4
-64 -10 -53 -28 -53 -211 -1 -240 10 -5 57 -9 105 -9 l86 0 -2 167 -3 167 -30
3 c-17 2 -34 0 -38 -4z m-7 -193 c0 -82 -12 -107 -44 -95 -13 5 -16 21 -16 84
0 80 4 87 43 89 15 1 17 -9 17 -78z"/>
<path d="M9147 2173 c-4 -3 -7 -80 -7 -170 l0 -164 43 3 42 3 3 68 c3 66 3 67
31 67 41 0 90 19 101 40 14 26 12 102 -4 122 -7 10 -25 22 -40 28 -30 11 -159
14 -169 3z m131 -55 c7 -7 12 -24 12 -38 0 -30 -17 -50 -42 -50 -15 0 -18 9
-18 50 0 41 3 50 18 50 10 0 23 -5 30 -12z"/>
<path d="M10018 2169 c-15 -6 -33 -24 -40 -40 -7 -16 -21 -29 -30 -29 -11 0
-18 -8 -18 -20 0 -13 7 -20 20 -20 19 0 20 -7 20 -110 l0 -110 40 0 40 0 0
110 c0 103 1 110 20 110 13 0 20 7 20 20 0 12 -7 20 -16 20 -26 0 -9 25 19 28
21 3 27 9 27 28 0 21 -4 24 -37 23 -21 0 -50 -5 -65 -10z"/>
<path d="M12007 2174 c-4 -4 -7 -22 -7 -41 0 -33 -1 -33 -46 -33 -25 0 -54 -4
-64 -10 -53 -28 -53 -211 -1 -240 10 -5 57 -9 105 -9 l86 0 -2 167 -3 167 -30
3 c-17 2 -34 0 -38 -4z m-7 -193 c0 -58 -4 -82 -15 -91 -29 -24 -45 5 -45 85
0 74 4 82 43 84 15 1 17 -9 17 -78z"/>
<path d="M12547 2173 c-4 -3 -7 -80 -7 -170 l0 -163 25 0 c24 0 24 2 27 92 l3
92 61 -57 61 -56 53 54 c38 38 56 51 62 42 4 -6 8 -47 8 -89 l0 -78 40 0 40 0
-2 167 c-4 207 -4 208 -118 97 l-80 -77 -79 76 c-82 80 -83 81 -94 70z"/>
<path d="M13317 2174 c-4 -4 -7 -22 -7 -41 0 -26 -4 -33 -20 -33 -13 0 -20 -7
-20 -20 0 -13 7 -20 20 -20 18 0 20 -7 20 -85 0 -78 2 -88 25 -110 30 -31 95
-36 95 -7 0 9 -9 23 -20 30 -17 10 -20 23 -20 92 0 73 2 80 20 80 13 0 20 7
20 20 0 13 -7 20 -19 20 -16 0 -20 8 -23 38 -3 33 -6 37 -33 40 -17 2 -34 0
-38 -4z"/>
<path d="M14547 2174 c-4 -4 -7 -22 -7 -41 0 -26 -4 -33 -20 -33 -13 0 -20 -7
-20 -20 0 -13 7 -20 20 -20 18 0 20 -7 20 -85 0 -78 2 -88 25 -110 30 -31 95
-36 95 -7 0 9 -9 23 -20 30 -17 10 -20 23 -20 92 0 73 2 80 20 80 13 0 20 7
20 20 0 13 -7 20 -19 20 -16 0 -20 8 -23 38 -3 33 -6 37 -33 40 -17 2 -34 0
-38 -4z"/>
<path d="M14724 2165 c-9 -23 5 -35 42 -35 30 0 34 3 34 25 0 22 -4 25 -35 25
-22 0 -38 -6 -41 -15z"/>
<path d="M4027 2088 c-9 -7 -20 -24 -25 -37 -15 -43 -3 -69 49 -101 51 -31 62
-53 32 -65 -12 -4 -24 1 -35 14 -9 12 -25 21 -36 21 -16 0 -19 -5 -15 -22 11
-44 33 -58 90 -58 64 0 93 23 93 73 0 41 -6 48 -57 81 -45 28 -54 49 -26 61
12 4 24 -1 35 -14 21 -27 48 -27 48 -1 0 36 -35 60 -88 60 -27 0 -56 -6 -65
-12z"/>
<path d="M4277 2088 c-51 -40 -49 -210 3 -238 10 -6 47 -10 83 -10 53 0 67 4
85 23 19 20 22 35 22 108 0 76 -2 88 -23 107 -19 18 -35 22 -88 22 -37 0 -72
-5 -82 -12z m101 -40 c7 -7 12 -40 12 -79 0 -70 -13 -95 -44 -83 -13 5 -16 21
-16 84 0 73 4 85 31 89 3 1 10 -4 17 -11z"/>
<path d="M4567 2088 c-51 -40 -49 -210 3 -238 10 -6 39 -10 64 -10 51 0 86 25
86 60 0 26 -27 26 -48 -1 -11 -13 -23 -18 -35 -14 -25 10 -25 160 0 170 12 4
24 -1 35 -14 21 -27 48 -27 48 -1 0 36 -35 60 -88 60 -27 0 -56 -6 -65 -12z"/>
<path d="M4790 1969 l0 -130 43 3 42 3 3 85 c2 47 0 104 -3 128 -6 41 -7 42
-46 42 l-39 0 0 -131z"/>
<path d="M4962 2084 c-27 -19 -30 -64 -4 -64 9 0 23 9 30 20 14 22 61 27 80 8
7 -7 12 -22 12 -35 0 -21 -5 -23 -44 -23 -60 0 -76 -8 -91 -43 -15 -36 -3 -82
24 -97 10 -5 57 -9 104 -9 l87 0 0 108 c0 99 -2 109 -23 129 -19 18 -35 22
-88 22 -42 0 -72 -5 -87 -16z m118 -158 c0 -29 -22 -49 -44 -40 -19 7 -22 50
-3 57 30 13 47 7 47 -17z"/>
<path d="M5257 2088 c-51 -40 -49 -210 3 -238 10 -6 39 -10 64 -10 51 0 86 25
86 60 0 26 -27 26 -48 -1 -11 -13 -23 -18 -35 -14 -14 6 -17 20 -17 85 0 65 3
79 17 85 12 4 24 -1 35 -14 21 -27 48 -27 48 -1 0 36 -35 60 -88 60 -27 0 -56
-6 -65 -12z"/>
<path d="M5470 1970 l0 -130 45 0 45 0 0 108 c0 145 -3 152 -51 152 l-39 0 0
-130z"/>
<path d="M5657 2088 c-51 -40 -49 -210 3 -238 10 -6 47 -10 83 -10 53 0 67 4
85 23 19 20 22 35 22 108 0 76 -2 88 -23 107 -19 18 -35 22 -88 22 -37 0 -72
-5 -82 -12z m101 -40 c7 -7 12 -40 12 -79 0 -70 -13 -95 -44 -83 -13 5 -16 21
-16 84 0 73 4 85 31 89 3 1 10 -4 17 -11z"/>
<path d="M5910 1969 l0 -130 43 3 42 3 3 102 c2 81 6 102 19 107 33 13 43 -12
43 -115 l0 -99 40 0 40 0 0 108 c0 100 -2 110 -23 130 -20 18 -34 21 -115 21
l-92 0 0 -130z"/>
<path d="M6662 2084 c-27 -19 -30 -64 -4 -64 9 0 23 9 30 20 14 22 61 27 80 8
7 -7 12 -22 12 -35 0 -21 -5 -23 -44 -23 -60 0 -76 -8 -91 -43 -15 -36 -3 -82
24 -97 10 -5 57 -9 104 -9 l87 0 0 108 c0 99 -2 109 -23 129 -19 18 -35 22
-88 22 -42 0 -72 -5 -87 -16z m118 -158 c0 -33 -25 -53 -45 -36 -18 15 -20 46
-2 53 30 13 47 7 47 -17z"/>
<path d="M6957 2088 c-51 -40 -49 -210 3 -238 10 -6 39 -10 64 -10 51 0 86 25
86 60 0 27 -27 26 -50 -2 -15 -19 -20 -20 -34 -9 -24 20 -23 156 1 166 12 4
24 -1 35 -14 9 -12 23 -21 32 -21 24 0 20 46 -6 64 -27 19 -108 21 -131 4z"/>
<path d="M7180 1969 l0 -130 43 3 42 3 3 85 c2 47 0 104 -3 128 -6 41 -7 42
-46 42 l-39 0 0 -131z"/>
<path d="M7357 2088 c-51 -40 -49 -210 3 -238 10 -6 47 -10 83 -10 53 0 67 4
85 23 19 20 22 35 22 108 0 76 -2 88 -23 107 -19 18 -35 22 -88 22 -37 0 -72
-5 -82 -12z m113 -117 c0 -76 -16 -105 -45 -81 -11 9 -15 33 -15 85 0 77 8 91
43 73 14 -7 17 -22 17 -77z"/>
<path d="M7610 1969 l0 -129 45 0 45 0 0 104 c0 87 3 105 16 110 34 13 44 -12
44 -115 l0 -99 40 0 40 0 0 108 c0 100 -2 110 -23 130 -20 18 -34 21 -115 21
l-92 0 0 -130z"/>
<path d="M7932 2084 c-27 -19 -30 -64 -4 -64 9 0 23 9 30 20 14 22 61 27 80 8
7 -7 12 -22 12 -35 0 -21 -5 -23 -44 -23 -60 0 -76 -8 -91 -43 -15 -36 -3 -82
24 -97 10 -5 57 -9 104 -9 l87 0 0 108 c0 99 -2 109 -23 129 -19 18 -35 22
-88 22 -42 0 -72 -5 -87 -16z m118 -158 c0 -33 -25 -53 -45 -36 -18 15 -20 46
-2 53 30 13 47 7 47 -17z"/>
<path d="M8777 2088 c-51 -40 -49 -210 3 -238 22 -12 140 -13 156 -2 13 8 34
46 34 61 0 19 -35 12 -48 -9 -24 -38 -92 -23 -92 21 l0 29 70 0 70 0 0 53 c0
76 -24 97 -111 97 -37 0 -72 -5 -82 -12z m101 -40 c7 -7 12 -22 12 -35 0 -19
-5 -23 -30 -23 -26 0 -30 3 -30 29 0 25 9 37 31 40 3 1 10 -4 17 -11z"/>
<path d="M9430 1969 l0 -130 43 3 42 3 5 85 5 85 50 5 c39 4 50 9 49 23 -3 56
-3 57 -37 57 -18 0 -43 -7 -55 -16 -20 -14 -22 -14 -22 0 0 12 -10 16 -40 16
l-40 0 0 -131z"/>
<path d="M9670 2082 c-41 -33 -40 -182 1 -223 15 -15 33 -19 87 -19 59 0 72 3
90 23 19 20 22 35 22 108 0 76 -2 88 -23 107 -31 30 -143 32 -177 4z m120
-111 c0 -76 -16 -105 -45 -81 -11 9 -15 33 -15 85 0 77 8 91 43 73 14 -7 17
-22 17 -77z"/>
<path d="M10187 2088 c-51 -40 -49 -210 3 -238 22 -12 140 -13 156 -2 13 8 34
46 34 61 0 19 -35 12 -48 -9 -24 -38 -92 -23 -92 21 l0 29 70 0 70 0 0 53 c0
76 -24 97 -111 97 -37 0 -72 -5 -82 -12z m101 -40 c7 -7 12 -22 12 -35 0 -19
-5 -23 -30 -23 -26 0 -30 3 -30 29 0 25 9 37 31 40 3 1 10 -4 17 -11z"/>
<path d="M10477 2088 c-9 -7 -20 -24 -25 -37 -15 -43 -3 -69 49 -101 51 -31
62 -53 32 -65 -12 -4 -24 1 -35 14 -9 12 -25 21 -36 21 -16 0 -19 -5 -15 -22
11 -44 33 -58 90 -58 64 0 93 23 93 73 0 41 -6 48 -57 81 -45 28 -54 49 -26
61 12 4 24 -1 35 -14 21 -27 48 -27 48 -1 0 36 -35 60 -88 60 -27 0 -56 -6
-65 -12z"/>
<path d="M10727 2088 c-51 -40 -49 -210 3 -238 10 -6 47 -10 83 -10 53 0 67 4
85 23 19 20 22 35 22 108 0 76 -2 88 -23 107 -19 18 -35 22 -88 22 -37 0 -72
-5 -82 -12z m113 -117 c0 -76 -16 -105 -45 -81 -11 9 -15 33 -15 85 0 77 8 91
43 73 14 -7 17 -22 17 -77z"/>
<path d="M10980 1970 l0 -130 45 0 44 0 3 88 3 87 45 3 c56 4 64 12 55 51 -6
27 -11 31 -39 31 -17 0 -42 -7 -54 -16 -20 -14 -22 -14 -22 0 0 12 -10 16 -40
16 l-40 0 0 -130z"/>
<path d="M11230 2082 c-41 -33 -40 -182 1 -223 15 -15 33 -19 87 -19 37 0 72
4 78 8 13 8 34 46 34 61 0 19 -35 12 -48 -9 -24 -38 -92 -23 -92 21 l0 29 70
0 70 0 0 53 c0 76 -24 97 -112 97 -49 0 -72 -5 -88 -18z m108 -34 c7 -7 12
-22 12 -35 0 -19 -5 -23 -30 -23 -26 0 -30 3 -30 29 0 25 9 37 31 40 3 1 10
-4 17 -11z"/>
<path d="M11527 2088 c-9 -7 -20 -24 -25 -37 -15 -43 -3 -69 49 -101 51 -31
62 -53 32 -65 -12 -4 -24 1 -35 14 -9 12 -25 21 -36 21 -16 0 -19 -5 -15 -22
11 -44 33 -58 90 -58 64 0 93 23 93 73 0 41 -6 48 -57 81 -45 28 -54 49 -26
61 12 4 24 -1 35 -14 21 -27 48 -27 48 -1 0 36 -35 60 -88 60 -27 0 -56 -6
-65 -12z"/>
<path d="M12177 2088 c-51 -40 -49 -210 3 -238 22 -12 140 -13 156 -2 13 8 34
46 34 61 0 19 -35 12 -48 -9 -14 -22 -61 -27 -80 -8 -7 7 -12 22 -12 35 0 22
4 23 70 23 l70 0 0 53 c0 76 -24 97 -111 97 -37 0 -72 -5 -82 -12z m113 -73
c0 -21 -5 -25 -30 -25 -26 0 -30 3 -30 29 0 16 6 31 13 34 21 8 47 -13 47 -38z"/>
<path d="M13012 2084 c-27 -19 -30 -64 -4 -64 9 0 23 9 30 20 14 22 61 27 80
8 7 -7 12 -22 12 -35 0 -21 -5 -23 -44 -23 -60 0 -76 -8 -91 -43 -15 -36 -3
-82 24 -97 10 -5 57 -9 104 -9 l87 0 0 108 c0 99 -2 109 -23 129 -19 18 -35
22 -88 22 -42 0 -72 -5 -87 -16z m118 -158 c0 -29 -22 -49 -44 -40 -19 7 -22
50 -3 57 30 13 47 7 47 -17z"/>
<path d="M13527 2088 c-51 -40 -49 -210 3 -238 22 -12 140 -13 156 -2 13 8 34
46 34 61 0 19 -35 12 -48 -9 -24 -38 -92 -23 -92 21 l0 29 70 0 70 0 0 53 c0
76 -24 97 -111 97 -37 0 -72 -5 -82 -12z m101 -40 c7 -7 12 -22 12 -35 0 -19
-5 -23 -30 -23 -26 0 -30 3 -30 29 0 25 9 37 31 40 3 1 10 -4 17 -11z"/>
<path d="M13780 1969 l0 -130 43 3 42 3 3 102 c2 81 6 102 19 107 33 13 43
-12 43 -115 l0 -99 40 0 40 0 0 98 c0 115 15 145 54 106 12 -12 16 -37 16
-110 l0 -94 41 0 41 0 -4 111 c-3 102 -5 112 -27 130 -26 22 -110 26 -129 7
-8 -8 -15 -8 -25 0 -7 6 -52 11 -105 11 l-92 0 0 -130z"/>
<path d="M14242 2084 c-27 -19 -30 -64 -4 -64 9 0 23 9 30 20 14 22 61 27 80
8 7 -7 12 -22 12 -35 0 -21 -5 -23 -44 -23 -60 0 -76 -8 -91 -43 -15 -36 -3
-82 24 -97 10 -5 57 -9 104 -9 l87 0 0 108 c0 99 -2 109 -23 129 -19 18 -35
22 -88 22 -42 0 -72 -5 -87 -16z m118 -158 c0 -29 -22 -49 -44 -40 -19 7 -22
50 -3 57 30 13 47 7 47 -17z"/>
<path d="M14720 1969 l0 -130 43 3 42 3 3 85 c2 47 0 104 -3 128 -6 41 -7 42
-46 42 l-39 0 0 -131z"/>
<path d="M14897 2088 c-51 -40 -49 -210 3 -238 10 -6 39 -10 64 -10 51 0 86
25 86 60 0 27 -27 26 -50 -2 -15 -19 -20 -20 -34 -9 -24 20 -23 156 1 166 12
4 24 -1 35 -14 9 -12 23 -21 32 -21 24 0 20 46 -6 64 -27 19 -108 21 -131 4z"/>
<path d="M15152 2084 c-27 -19 -30 -64 -4 -64 9 0 23 9 30 20 14 22 61 27 80
8 7 -7 12 -22 12 -35 0 -21 -5 -23 -44 -23 -60 0 -76 -8 -91 -43 -15 -36 -3
-82 24 -97 10 -5 57 -9 104 -9 l87 0 0 108 c0 99 -2 109 -23 129 -19 18 -35
22 -88 22 -42 0 -72 -5 -87 -16z m118 -158 c0 -29 -22 -49 -44 -40 -19 7 -22
50 -3 57 30 13 47 7 47 -17z"/>
<path d="M15447 2088 c-9 -7 -20 -24 -25 -37 -15 -43 -3 -69 49 -101 51 -31
62 -53 32 -65 -12 -4 -24 1 -35 14 -9 12 -25 21 -36 21 -16 0 -19 -5 -15 -22
11 -44 33 -58 90 -58 64 0 93 23 93 73 0 41 -6 48 -57 81 -45 28 -54 49 -26
61 12 4 24 -1 35 -14 21 -27 48 -27 48 -1 0 36 -35 60 -88 60 -27 0 -56 -6
-65 -12z"/>
<path d="M9617 1655 c-21 -45 -21 -45 3 -45 18 0 50 44 50 70 0 25 -37 8 -53
-25z"/>
<path d="M7527 1653 c-4 -3 -7 -80 -7 -170 l0 -163 93 0 c85 0 96 2 115 23 20
21 22 34 22 143 -1 128 -6 145 -54 164 -30 11 -159 14 -169 3z m131 -55 c8 -8
12 -48 12 -113 0 -104 -7 -125 -42 -125 -16 0 -18 11 -18 125 0 114 2 125 18
125 10 0 23 -5 30 -12z"/>
<path d="M8107 1653 c-4 -3 -7 -80 -7 -170 l0 -163 45 0 45 0 0 139 c0 76 -3
153 -6 170 -6 27 -11 31 -39 31 -17 0 -35 -3 -38 -7z"/>
<path d="M9374 1645 c-9 -23 5 -35 42 -35 30 0 34 3 34 25 0 22 -4 25 -35 25
-22 0 -38 -6 -41 -15z"/>
<path d="M10327 1653 c-4 -3 -7 -66 -7 -138 0 -106 -3 -135 -15 -145 -25 -20
-45 5 -45 56 l0 44 -40 0 -40 0 0 -55 c0 -80 18 -95 113 -95 101 0 110 10 115
135 3 52 1 119 -3 150 -6 54 -7 55 -39 55 -18 0 -36 -3 -39 -7z"/>
<path d="M10757 1653 c-4 -3 -7 -80 -7 -170 l0 -164 43 3 42 3 3 115 c2 63 0
139 -3 168 -6 51 -7 52 -39 52 -18 0 -36 -3 -39 -7z"/>
<path d="M10894 1645 c-9 -23 5 -35 42 -35 30 0 34 3 34 25 0 22 -4 25 -35 25
-22 0 -38 -6 -41 -15z"/>
<path d="M7847 1568 c-51 -40 -49 -210 3 -238 22 -12 140 -13 156 -2 13 8 34
46 34 61 0 19 -35 12 -48 -9 -14 -22 -61 -27 -80 -8 -7 7 -12 22 -12 35 0 22
4 23 70 23 l70 0 0 53 c0 76 -24 97 -111 97 -37 0 -72 -5 -82 -12z m113 -73
c0 -21 -5 -25 -30 -25 -26 0 -30 3 -30 29 0 16 6 31 13 34 21 8 47 -13 47 -38z"/>
<path d="M8287 1568 c-51 -40 -49 -210 3 -238 22 -12 140 -13 156 -2 13 8 34
46 34 61 0 19 -35 12 -48 -9 -24 -38 -92 -23 -92 21 l0 29 70 0 70 0 0 53 c0
76 -24 97 -111 97 -37 0 -72 -5 -82 -12z m101 -40 c7 -7 12 -22 12 -35 0 -19
-5 -23 -30 -23 -26 0 -30 3 -30 29 0 25 9 37 31 40 3 1 10 -4 17 -11z"/>
<path d="M8577 1568 c-37 -29 -50 -138 -23 -203 16 -38 44 -50 101 -43 32 4
35 2 35 -22 0 -14 -5 -31 -12 -38 -19 -19 -66 -14 -80 8 -7 11 -23 20 -35 20
-20 0 -21 -3 -11 -30 14 -41 35 -50 111 -50 53 0 67 4 85 23 21 22 22 33 22
185 l0 162 -88 0 c-55 0 -94 -5 -105 -12z m113 -107 c0 -82 -12 -107 -44 -95
-13 5 -16 21 -16 84 0 80 4 87 43 89 15 1 17 -9 17 -78z"/>
<path d="M8862 1564 c-27 -19 -30 -64 -4 -64 9 0 23 9 30 20 14 22 61 27 80 8
7 -7 12 -22 12 -35 0 -21 -5 -23 -44 -23 -60 0 -76 -8 -91 -43 -15 -36 -3 -82
24 -97 10 -5 57 -9 104 -9 l87 0 0 108 c0 99 -2 109 -23 129 -19 18 -35 22
-88 22 -42 0 -72 -5 -87 -16z m118 -158 c0 -29 -22 -49 -44 -40 -19 7 -22 50
-3 57 30 13 47 7 47 -17z"/>
<path d="M9157 1568 c-51 -40 -49 -210 3 -238 10 -6 39 -10 64 -10 51 0 86 25
86 60 0 26 -27 26 -48 -1 -11 -13 -23 -18 -35 -14 -14 6 -17 20 -17 85 0 65 3
79 17 85 12 4 24 -1 35 -14 21 -27 48 -27 48 -1 0 36 -35 60 -88 60 -27 0 -56
-6 -65 -12z"/>
<path d="M9370 1449 l0 -130 43 3 42 3 3 85 c2 47 0 104 -3 128 -6 41 -7 42
-46 42 l-39 0 0 -131z"/>
<path d="M9557 1568 c-51 -40 -49 -210 3 -238 10 -6 47 -10 83 -10 53 0 67 4
85 23 19 20 22 35 22 108 0 76 -2 88 -23 107 -19 18 -35 22 -88 22 -37 0 -72
-5 -82 -12z m101 -40 c7 -7 12 -40 12 -79 0 -70 -13 -95 -44 -83 -13 5 -16 21
-16 84 0 73 4 85 31 89 3 1 10 -4 17 -11z"/>
<path d="M9810 1449 l0 -130 43 3 42 3 3 102 c2 81 6 102 19 107 33 13 43 -12
43 -115 l0 -99 40 0 40 0 0 108 c0 100 -2 110 -23 130 -20 18 -34 21 -115 21
l-92 0 0 -130z"/>
<path d="M10492 1564 c-27 -19 -30 -64 -4 -64 9 0 23 9 30 20 14 22 61 27 80
8 7 -7 12 -22 12 -35 0 -21 -5 -23 -44 -23 -60 0 -76 -8 -91 -43 -15 -36 -3
-82 24 -97 10 -5 57 -9 104 -9 l87 0 0 108 c0 99 -2 109 -23 129 -19 18 -35
22 -88 22 -42 0 -72 -5 -87 -16z m118 -158 c0 -29 -22 -49 -44 -40 -19 7 -22
50 -3 57 30 13 47 7 47 -17z"/>
<path d="M10890 1450 l0 -130 45 0 45 0 0 108 c0 145 -3 152 -51 152 l-39 0 0
-130z"/>
<path d="M11077 1568 c-9 -7 -20 -24 -25 -37 -15 -43 -3 -69 49 -101 51 -31
62 -53 32 -65 -12 -4 -24 1 -35 14 -9 12 -25 21 -36 21 -16 0 -19 -5 -15 -22
11 -44 33 -58 90 -58 64 0 93 23 93 73 0 41 -6 48 -57 81 -45 28 -54 49 -26
61 12 4 24 -1 35 -14 21 -27 48 -27 48 -1 0 36 -35 60 -88 60 -27 0 -56 -6
-65 -12z"/>
<path d="M11327 1568 c-51 -40 -49 -210 3 -238 10 -6 39 -10 64 -10 51 0 86
25 86 60 0 27 -27 26 -50 -2 -15 -19 -20 -20 -34 -9 -24 20 -23 156 1 166 12
4 24 -1 35 -14 9 -12 23 -21 32 -21 24 0 20 46 -6 64 -27 19 -108 21 -131 4z"/>
<path d="M11587 1568 c-51 -40 -49 -210 3 -238 10 -6 47 -10 83 -10 53 0 67 4
85 23 19 20 22 35 22 108 0 76 -2 88 -23 107 -19 18 -35 22 -88 22 -37 0 -72
-5 -82 -12z m101 -40 c7 -7 12 -40 12 -79 0 -70 -13 -95 -44 -83 -13 5 -16 21
-16 84 0 73 4 85 31 89 3 1 10 -4 17 -11z"/>
</g>
</svg>
